<svg width="766" height="182" viewBox="0 0 766 182" xmlns="http://www.w3.org/2000/svg" xmlns:xlink="http://www.w3.org/1999/xlink" fill="none" overflow="hidden"><path d="M151.727 112.683C142.877 136.927 119.604 154.25 92.2716 154.25 83.2165 154.25 74.611 152.349 66.8147 148.921 66.378 148.728 66.2367 148.176 66.5321 147.791L158.56 30.023C151.547 22.2412 143.185 15.6793 133.873 10.6968 121.094 3.87808 106.503 0 91.0128 0 40.7927 0 0.0642202 40.6813 0 90.878 0 91.2247 0.012844 91.5843 0.012844 91.9438 0.0770642 99.0836 0.976147 106.031 2.60734 112.683 8.78532 137.929 25.4826 159.155 48.1651 171.278 60.5725 177.916 74.7009 181.756 89.7027 181.961 90.6147 181.987 91.5266 182 92.4514 182 135.53 182 171.738 152.542 182 112.67L151.714 112.67 151.727 112.683ZM32.8165 112.683C30.3248 105.851 29.0275 98.3388 29.0018 90.9936 29.0018 56.0652 57.3358 27.7501 92.2716 27.7501 100.594 27.7501 108.545 29.3553 115.815 32.2702 116.264 32.45 116.418 33.015 116.11 33.4003L42.1541 128.054C41.8587 128.439 41.2679 128.426 40.9853 128.041 37.5945 123.354 34.833 118.191 32.8165 112.683Z" fill="#040000"/><path d="M491.727 112.683C482.877 136.927 459.604 154.25 432.272 154.25 423.217 154.25 414.611 152.349 406.815 148.921 406.378 148.728 406.237 148.176 406.532 147.791L498.56 30.023C491.547 22.2412 483.185 15.6793 473.873 10.6968 461.094 3.86524 446.503 0 431.013 0 380.793 0 340.064 40.6813 340 90.878 340 91.2247 340.013 91.5843 340.013 91.9438 340.077 99.0836 340.976 106.031 342.607 112.683 348.785 137.929 365.483 159.155 388.165 171.278 400.572 177.916 414.701 181.756 429.703 181.961 430.615 181.987 431.527 182 432.451 182 475.53 182 511.738 152.542 522 112.67L491.714 112.67 491.727 112.683ZM372.804 112.683C370.312 105.851 369.015 98.3388 368.989 90.9936 368.989 56.0652 397.323 27.7501 432.259 27.7501 440.582 27.7501 448.532 29.3553 455.802 32.2702 456.251 32.45 456.406 33.015 456.097 33.4003L382.141 128.054C381.846 128.439 381.255 128.426 380.972 128.041 377.582 123.354 374.82 118.191 372.804 112.683Z" fill="#040000"/><path d="M256.992 65.6134C257.275 65.9735 257.815 65.9735 258.098 65.6134L305.58 4 345 4 278.978 90.1944C278.785 90.4517 278.785 90.7861 278.978 91.0434L345 178.987 304.243 178.987 258.111 116.782C257.828 116.409 257.275 116.396 256.992 116.782L209.78 179 170.103 179 253.276 71.7876C253.636 71.3245 253.302 70.6556 252.724 70.6556L222.072 70.6556 170 4 209.819 4 256.992 65.6005 256.992 65.6134Z" fill="#040000"/><path d="M700.254 0C678.102 0 661.827 7.04051 651.015 18.552 650.732 18.8475 650.281 18.8475 649.997 18.552 639.186 7.05336 622.91 0 600.759 0 555.76 0 535 29.0871 535 65.5616L535 176 567.061 176 567.061 66.3067C567.061 41.1767 582.151 32.0292 600.772 32.0292 619.392 32.0292 634.482 41.1767 634.482 66.3067L634.482 176 634.482 175.897 666.531 176 666.531 66.3067C666.531 41.1767 681.62 32.0292 700.228 32.0292 718.836 32.0292 733.939 41.1767 733.939 66.3067L733.939 175.987 766 175.987 766 65.5616C766 29.0999 745.253 0 700.241 0L700.254 0Z" fill="#040000"/></svg>